<svg xmlns="http://www.w3.org/2000/svg" viewBox="0 0 1024 1024">
  <defs>
    <linearGradient id="background" x1="150" y1="130" x2="890" y2="920" gradientUnits="userSpaceOnUse">
      <stop stop-color="#172554" />
      <stop offset="1" stop-color="#0F172A" />
    </linearGradient>
    <linearGradient id="leftFrame" x1="160" y1="220" x2="455" y2="660" gradientUnits="userSpaceOnUse">
      <stop stop-color="#38BDF8" />
      <stop offset="1" stop-color="#2563EB" />
    </linearGradient>
    <linearGradient id="rightFrame" x1="570" y1="220" x2="865" y2="660" gradientUnits="userSpaceOnUse">
      <stop stop-color="#A78BFA" />
      <stop offset="1" stop-color="#7C3AED" />
    </linearGradient>
  </defs>

  <rect x="32" y="32" width="960" height="960" rx="224" fill="url(#background)" />
  <rect x="132" y="202" width="326" height="452" rx="72" fill="url(#leftFrame)" />
  <rect x="566" y="202" width="326" height="452" rx="72" fill="url(#rightFrame)" />
  <rect x="188" y="270" width="214" height="316" rx="38" fill="#0F172A" fill-opacity="0.72" />
  <rect x="622" y="270" width="214" height="316" rx="38" fill="#0F172A" fill-opacity="0.72" />

  <g fill="none" stroke="#FFFFFF" stroke-linecap="round" stroke-linejoin="round">
    <path d="M512 578L372 322" stroke-width="50" />
    <path d="M512 578L652 322" stroke-width="50" />
    <path d="M512 578L430 690" stroke-width="42" />
    <path d="M512 578L594 690" stroke-width="42" />
    <circle cx="386" cy="750" r="74" stroke-width="42" />
    <circle cx="638" cy="750" r="74" stroke-width="42" />
  </g>
  <circle cx="512" cy="578" r="27" fill="#FFFFFF" />
</svg>
